<svg xmlns="http://www.w3.org/2000/svg" width="500" height="128.677" viewBox="0 0 500 128.677"><path fill="#1d63ed" d="M158.182 46.56c-.946-6.957-4.77-12.998-11.727-18.452l-3.992-2.7-2.68 4.056a31.796 31.796 0 0 0-4.57 19.407 25.113 25.113 0 0 0 3.52 10.644 28.171 28.171 0 0 1-13.84 3.08H.704l-.241 1.439C-.705 71.01-.684 92.783 13.27 109.51c10.612 12.714 26.51 19.166 47.284 19.166 44.984 0 78.272-21.015 93.855-59.116 6.136.126 19.334 0 26.122-13.072.168-.294.578-1.103 1.765-3.583l.652-1.355-3.815-2.575c-4.119-2.805-13.597-3.825-20.889-2.416zM100.001 0H81.087v17.39h18.914zm0 20.868H81.087v17.39h18.914zm-22.318 0H58.758v17.39h18.914zm-22.319 0H36.451v17.39h18.913zM33.046 41.747H14.132v17.39h18.914zm22.318 0H36.451v17.39h18.913zm22.308 0H58.758v17.39h18.914zm22.319 0H81.077v17.39H99.99zm22.318 0h-18.914v17.39h18.914zm114.765-3.888a4.581 4.581 0 0 0-3.426 1.387 4.791 4.791 0 0 0-1.366 3.51v23.526a25.46 25.46 0 0 0-34.455 1.934 26.868 26.868 0 0 0 0 37.355 25.418 25.418 0 0 0 36.536 0 25.523 25.523 0 0 0 7.565-18.641V42.798a4.77 4.77 0 0 0-4.844-4.897zm-5.99 55.428a16.812 16.812 0 0 1-3.457 5.254 16.466 16.466 0 0 1-5.128 3.583 15.142 15.142 0 0 1-6.304 1.324 15.33 15.33 0 0 1-6.368-1.324 16.34 16.34 0 0 1-5.117-3.562 16.896 16.896 0 0 1-3.426-5.254 16.812 16.812 0 0 1 0-12.83 16.812 16.812 0 0 1 3.426-5.254 16.581 16.581 0 0 1 5.117-3.562 15.226 15.226 0 0 1 6.368-1.324 15.005 15.005 0 0 1 6.304 1.324 16.224 16.224 0 0 1 5.128 3.583 17.285 17.285 0 0 1 3.457 5.254 16.812 16.812 0 0 1 0 12.736zm217.068-25.06a25.418 25.418 0 0 0-36.535 0 26.868 26.868 0 0 0 0 37.354 25.429 25.429 0 0 0 35.137 1.314 5.254 5.254 0 0 0 0-7.051 4.676 4.676 0 0 0-3.415-1.356 4.834 4.834 0 0 0-3.152 1.23 14.952 14.952 0 0 1-4.707 2.837 15.909 15.909 0 0 1-5.58.935 15.33 15.33 0 0 1-5.138-.851 16.518 16.518 0 0 1-4.508-2.375 16.098 16.098 0 0 1-3.573-3.688 15.93 15.93 0 0 1-2.3-4.75h36.513a4.77 4.77 0 0 0 4.844-4.896 27.005 27.005 0 0 0-1.891-10.15 25.733 25.733 0 0 0-5.664-8.512zm-33.803 13.775a15.825 15.825 0 0 1 2.259-4.75 16.634 16.634 0 0 1 3.593-3.688 16.812 16.812 0 0 1 4.56-2.385 15.762 15.762 0 0 1 5.118-.851 15.488 15.488 0 0 1 5.054.84 16.476 16.476 0 0 1 8.112 6.074 16.014 16.014 0 0 1 2.333 4.75zm84.376-18.189a9.152 9.152 0 0 0-3.247-2.007 18.84 18.84 0 0 0-4.287-.998 34.045 34.045 0 0 0-4.36-.284 24.609 24.609 0 0 0-8.67 1.513 26.196 26.196 0 0 0-7.523 4.33v-.936a4.739 4.739 0 0 0-1.408-3.467 4.581 4.581 0 0 0-3.383-1.44 4.697 4.697 0 0 0-3.436 1.44 4.76 4.76 0 0 0-1.408 3.467v42.998a4.728 4.728 0 0 0 1.408 3.467 4.644 4.644 0 0 0 3.436 1.44 4.497 4.497 0 0 0 3.383-1.44 4.76 4.76 0 0 0 1.408-3.467V86.93a16.634 16.634 0 0 1 1.272-6.462 16.466 16.466 0 0 1 3.446-5.254 16.182 16.182 0 0 1 5.138-3.53 15.415 15.415 0 0 1 6.305-1.304 16.875 16.875 0 0 1 6.305 1.177 5.128 5.128 0 0 0 2.028.526 4.75 4.75 0 0 0 1.891-.379 4.844 4.844 0 0 0 1.524-1.05 5.107 5.107 0 0 0 1.05-1.587 4.718 4.718 0 0 0 .4-1.933 4.424 4.424 0 0 0-1.293-3.3zm-207.232 4.413a25.418 25.418 0 0 0-36.535 0 26.868 26.868 0 0 0 0 37.355 25.44 25.44 0 0 0 36.535 0 25.544 25.544 0 0 0 7.555-18.651 27.856 27.856 0 0 0-1.913-10.14 25.964 25.964 0 0 0-5.642-8.564zm-3.352 25.061a16.655 16.655 0 0 1-3.447 5.254 16.381 16.381 0 0 1-5.138 3.583 15.026 15.026 0 0 1-6.304 1.324 15.33 15.33 0 0 1-6.368-1.324 16.224 16.224 0 0 1-5.117-3.562 16.917 16.917 0 0 1-3.436-5.254 16.812 16.812 0 0 1 0-12.83 16.812 16.812 0 0 1 3.436-5.254 16.466 16.466 0 0 1 5.117-3.562 15.226 15.226 0 0 1 6.368-1.324 14.984 14.984 0 0 1 6.304 1.324 16.266 16.266 0 0 1 5.138 3.583 17.064 17.064 0 0 1 3.447 5.254 16.634 16.634 0 0 1 0 12.757zM398.839 65.39a4.781 4.781 0 0 0-.388-1.88 5.527 5.527 0 0 0-1.051-1.577 4.466 4.466 0 0 0-1.534-1.05 4.897 4.897 0 0 0-1.881-.39 4.55 4.55 0 0 0-2.585.757l-27.54 18.326V42.798a4.834 4.834 0 0 0-1.409-3.52 4.592 4.592 0 0 0-3.383-1.44 4.697 4.697 0 0 0-3.436 1.44 4.791 4.791 0 0 0-1.408 3.52v65.557a4.844 4.844 0 0 0 1.408 3.5 4.623 4.623 0 0 0 3.436 1.46 4.497 4.497 0 0 0 3.383-1.46 4.886 4.886 0 0 0 1.408-3.5V91.333l5.622-3.773 21.32 24.452a4.413 4.413 0 0 0 3.226 1.271 4.581 4.581 0 0 0 1.891-.389 4.497 4.497 0 0 0 1.524-1.05 5.254 5.254 0 0 0 1.05-1.587 4.655 4.655 0 0 0 .4-1.88 5.023 5.023 0 0 0-1.345-3.437l-19.828-22.833 19.313-12.84a4.403 4.403 0 0 0 1.839-3.91zm-80.047 9.793a16.276 16.276 0 0 1 5.16-3.53 15.457 15.457 0 0 1 6.304-1.303 14.994 14.994 0 0 1 5.632 1.05 18.126 18.126 0 0 1 4.928 3.058 4.876 4.876 0 0 0 3.152 1.135 4.55 4.55 0 0 0 3.426-1.408 5.128 5.128 0 0 0-.305-7.25 24.294 24.294 0 0 0-16.812-6.42 24.651 24.651 0 0 0-18.284 7.723 26.868 26.868 0 0 0 0 37.355 24.672 24.672 0 0 0 18.273 7.744 24.367 24.367 0 0 0 16.812-6.42 5.044 5.044 0 0 0 1.524-3.636 4.823 4.823 0 0 0-1.355-3.51 4.613 4.613 0 0 0-3.436-1.387 5.065 5.065 0 0 0-3.037 1.051 16.34 16.34 0 0 1-4.886 3.037 15.12 15.12 0 0 1-5.632 1.05 15.457 15.457 0 0 1-6.305-1.302 16.623 16.623 0 0 1-5.16-3.53 16.182 16.182 0 0 1-3.488-5.255 17.117 17.117 0 0 1 0-12.945 16.34 16.34 0 0 1 3.489-5.254z"/></svg>